<svg version="1.2" preserveAspectRatio="xMidYMid meet" viewBox="68.1 68.990623344225 238.5 241.49999420400002" zoomAndPan="magnify" xmlns:xlink="http://www.w3.org/1999/xlink" xmlns="http://www.w3.org/2000/svg" style="max-height: 500px" width="238.5" height="241.49999420400002"><defs><clipPath id="1ecbfd0cb9"><path d="M 77.761719 76 L 297.441406 76 L 297.441406 299.269531 L 77.761719 299.269531 Z M 77.761719 76"/></clipPath></defs><g id="8f3989f187"><g clip-path="url(#1ecbfd0cb9)" clip-rule="nonzero"><path d="M 277.992188 250.519531 L 297.511719 250.519531 L 297.511719 187.457031 C 297.511719 126.207031 247.277344 76.132812 185.472656 76.132812 C 134.140625 76.132812 91.128906 110.355469 77.761719 157.5625 L 114.992188 157.5625 C 126.5625 130.183594 154.03125 111.070312 185.472656 111.070312 C 228.117188 111.070312 262.449219 145.292969 262.449219 187.457031 L 262.449219 250.519531 Z M 145.351562 187.457031 C 145.351562 209.804688 163.425781 227.828125 185.472656 227.828125 C 207.882812 227.828125 225.941406 209.804688 225.941406 187.457031 C 225.941406 165.488281 207.882812 147.464844 185.472656 147.464844 C 163.425781 147.464844 145.351562 165.488281 145.351562 187.457031 Z M 77.761719 217.730469 C 91.128906 264.570312 134.140625 299.160156 185.472656 299.160156 C 207.511719 299.160156 227.757812 293.039062 245.101562 282.222656 L 245.101562 236.101562 C 231.003906 253.410156 209.324219 264.222656 185.472656 264.222656 C 154.03125 264.222656 126.5625 245.113281 114.992188 217.730469 Z M 262.449219 299.160156 L 297.511719 299.160156 L 297.511719 264.222656 L 262.449219 264.222656 Z M 262.449219 299.160156" style="stroke:none;fill-rule:evenodd;fill:#e11d48;fill-opacity:1;"/></g></g></svg>