<svg version="1.2" preserveAspectRatio="xMidYMid meet" viewBox="0 142.640996576616 369.75 86.24999793" zoomAndPan="magnify" xmlns:xlink="http://www.w3.org/1999/xlink" xmlns="http://www.w3.org/2000/svg" style="max-height: 500px" width="369.75" height="86.24999793"><defs><clipPath id="b506124d44"><path d="M 7.261719 154.234375 L 63.492188 154.234375 L 63.492188 211.234375 L 7.261719 211.234375 Z M 7.261719 154.234375"/></clipPath></defs><g id="21c7ea4149"><g clip-path="url(#b506124d44)" clip-rule="nonzero"><path d="M 58.527344 198.785156 L 63.511719 198.785156 L 63.511719 182.6875 C 63.511719 167.050781 50.6875 154.265625 34.910156 154.265625 C 21.804688 154.265625 10.824219 163.003906 7.410156 175.054688 L 16.914062 175.054688 C 19.867188 168.066406 26.882812 163.1875 34.910156 163.1875 C 45.796875 163.1875 54.5625 171.921875 54.5625 182.6875 L 54.5625 198.785156 Z M 24.667969 182.6875 C 24.667969 188.390625 29.28125 192.992188 34.910156 192.992188 C 40.628906 192.992188 45.242188 188.390625 45.242188 182.6875 C 45.242188 177.078125 40.628906 172.476562 34.910156 172.476562 C 29.28125 172.476562 24.667969 177.078125 24.667969 182.6875 Z M 7.410156 190.414062 C 10.824219 202.375 21.804688 211.203125 34.910156 211.203125 C 40.535156 211.203125 45.703125 209.640625 50.132812 206.878906 L 50.132812 195.105469 C 46.53125 199.523438 41 202.285156 34.910156 202.285156 C 26.882812 202.285156 19.867188 197.40625 16.914062 190.414062 Z M 54.5625 211.203125 L 63.511719 211.203125 L 63.511719 202.285156 L 54.5625 202.285156 Z M 54.5625 211.203125" style="stroke:none;fill-rule:evenodd;fill:#e11d48;fill-opacity:1;"/></g><g style="fill:#334155;fill-opacity:1;"><g transform="translate(64.877089, 211.447074)"><path d="M 13.125 0 L 4.140625 0 L 4.140625 -40.78125 L 13.125 -40.78125 Z M 13.125 0" style="stroke:none"/></g></g><g style="fill:#334155;fill-opacity:1;"><g transform="translate(82.136172, 211.447074)"><path d="M 34.453125 -33.453125 L 22.28125 -33.453125 L 22.28125 0 L 13.234375 0 L 13.234375 -33.453125 L 1.0625 -33.453125 L 1.0625 -40.78125 L 34.453125 -40.78125 Z M 34.453125 -33.453125" style="stroke:none"/></g></g><g style="fill:#334155;fill-opacity:1;"><g transform="translate(117.659135, 211.447074)"><path d="M 36.53125 -40.78125 L 36.53125 0 L 27.546875 0 L 27.546875 -18.203125 L 13.125 -18.203125 L 13.125 0 L 4.140625 0 L 4.140625 -40.78125 L 13.125 -40.78125 L 13.125 -25.1875 L 27.546875 -25.1875 L 27.546875 -40.78125 Z M 36.53125 -40.78125" style="stroke:none"/></g></g><g style="fill:#334155;fill-opacity:1;"><g transform="translate(158.324369, 211.447074)"><path d="M 31.265625 -7.03125 L 31.6875 -0.40625 C 27.976562 -0.0195312 21.671875 0.171875 12.765625 0.171875 C 10.046875 0.171875 7.878906 -0.5625 6.265625 -2.03125 C 4.648438 -3.507812 3.820312 -5.507812 3.78125 -8.03125 L 3.78125 -32.75 C 3.820312 -35.269531 4.648438 -37.269531 6.265625 -38.75 C 7.878906 -40.226562 10.046875 -40.96875 12.765625 -40.96875 C 21.671875 -40.96875 27.976562 -40.769531 31.6875 -40.375 L 31.265625 -33.6875 L 15.609375 -33.6875 C 14.617188 -33.6875 13.90625 -33.453125 13.46875 -32.984375 C 13.039062 -32.515625 12.828125 -31.742188 12.828125 -30.671875 L 12.828125 -24.46875 L 29.078125 -24.46875 L 29.078125 -17.96875 L 12.828125 -17.96875 L 12.828125 -10.109375 C 12.828125 -9.003906 13.039062 -8.210938 13.46875 -7.734375 C 13.90625 -7.265625 14.617188 -7.03125 15.609375 -7.03125 Z M 31.265625 -7.03125" style="stroke:none"/></g></g><g style="fill:#334155;fill-opacity:1;"><g transform="translate(192.369678, 211.447074)"><path d="M 36.296875 0 L 26.78125 0 L 23.703125 -12.46875 C 23.304688 -13.769531 22.78125 -14.664062 22.125 -15.15625 C 21.476562 -15.65625 20.546875 -15.90625 19.328125 -15.90625 L 13 -15.953125 L 13 0 L 4.140625 0 L 4.140625 -40.78125 C 7.804688 -41.132812 12.988281 -41.3125 19.6875 -41.3125 C 25.164062 -41.3125 29.046875 -40.441406 31.328125 -38.703125 C 33.609375 -36.972656 34.75 -33.828125 34.75 -29.265625 C 34.75 -26.265625 34.148438 -23.914062 32.953125 -22.21875 C 31.753906 -20.53125 29.753906 -19.507812 26.953125 -19.15625 L 26.953125 -18.859375 C 30.066406 -18.148438 32 -16.097656 32.75 -12.703125 Z M 13 -22.875 L 19.5 -22.875 C 21.863281 -22.875 23.476562 -23.273438 24.34375 -24.078125 C 25.21875 -24.890625 25.65625 -26.414062 25.65625 -28.65625 C 25.65625 -30.90625 25.226562 -32.425781 24.375 -33.21875 C 23.53125 -34.007812 21.90625 -34.40625 19.5 -34.40625 L 13 -34.34375 Z M 13 -22.875" style="stroke:none"/></g></g><g style="fill:#334155;fill-opacity:1;"><g transform="translate(230.375123, 211.447074)"><path d="M 55.984375 -40.78125 L 49.53125 -2.484375 C 49.375 -1.734375 49 -1.128906 48.40625 -0.671875 C 47.820312 -0.222656 47.113281 0 46.28125 0 L 37.65625 0 C 36.820312 0 36.109375 -0.234375 35.515625 -0.703125 C 34.929688 -1.179688 34.578125 -1.796875 34.453125 -2.546875 L 30.03125 -29.203125 C 29.71875 -30.929688 29.476562 -32.644531 29.3125 -34.34375 L 28.1875 -34.34375 C 28.1875 -34.226562 28.097656 -33.5 27.921875 -32.15625 C 27.742188 -30.8125 27.597656 -29.804688 27.484375 -29.140625 L 23.109375 -2.546875 C 22.992188 -1.796875 22.628906 -1.179688 22.015625 -0.703125 C 21.410156 -0.234375 20.691406 0 19.859375 0 L 11.234375 0 C 10.441406 0 9.738281 -0.222656 9.125 -0.671875 C 8.519531 -1.128906 8.140625 -1.734375 7.984375 -2.484375 L 1.53125 -40.78125 L 10.765625 -40.78125 L 14.71875 -12.46875 C 14.957031 -10.695312 15.132812 -8.726562 15.25 -6.5625 L 16.4375 -6.5625 C 16.550781 -7.664062 16.84375 -9.632812 17.3125 -12.46875 L 21.6875 -38 C 21.8125 -38.832031 22.15625 -39.503906 22.71875 -40.015625 C 23.289062 -40.523438 24.015625 -40.78125 24.890625 -40.78125 L 32.6875 -40.78125 C 33.507812 -40.78125 34.207031 -40.523438 34.78125 -40.015625 C 35.351562 -39.503906 35.703125 -38.832031 35.828125 -38 L 40.1875 -12.40625 C 40.664062 -9.488281 40.941406 -7.539062 41.015625 -6.5625 L 42.265625 -6.5625 C 42.421875 -8.8125 42.597656 -10.742188 42.796875 -12.359375 L 46.8125 -40.78125 Z M 55.984375 -40.78125" style="stroke:none"/></g></g><g style="fill:#334155;fill-opacity:1;"><g transform="translate(287.885696, 211.447074)"><path d="M 26.25 -10.703125 L 12.234375 -10.703125 L 9.28125 0 L 0.0625 0 L 11.828125 -38.421875 C 11.984375 -39.128906 12.351562 -39.695312 12.9375 -40.125 C 13.53125 -40.5625 14.203125 -40.78125 14.953125 -40.78125 L 23.46875 -40.78125 C 25.164062 -40.78125 26.207031 -39.992188 26.59375 -38.421875 L 38.359375 0 L 29.203125 0 Z M 24.296875 -17.671875 L 20.859375 -30.140625 C 20.390625 -32.109375 20.113281 -33.390625 20.03125 -33.984375 L 18.4375 -33.984375 C 18.363281 -33.585938 18.226562 -32.957031 18.03125 -32.09375 C 17.832031 -31.226562 17.675781 -30.578125 17.5625 -30.140625 L 14.125 -17.671875 Z M 24.296875 -17.671875" style="stroke:none"/></g></g><g style="fill:#334155;fill-opacity:1;"><g transform="translate(326.304885, 211.447074)"><path d="M 22.515625 -13.484375 L 22.515625 0 L 13.484375 0 L 13.484375 -13.484375 L 0 -40.78125 L 9.390625 -40.78125 L 16.203125 -25.828125 C 16.585938 -24.960938 17.097656 -23.25 17.734375 -20.6875 L 18.328125 -20.6875 C 18.796875 -22.8125 19.285156 -24.523438 19.796875 -25.828125 L 26.59375 -40.78125 L 35.875 -40.78125 Z M 22.515625 -13.484375" style="stroke:none"/></g></g></g></svg>